<svg width="48" height="23" viewBox="0 0 48 23" fill="none" xmlns="http://www.w3.org/2000/svg">
<path d="M17.5838 2.29122C17.5838 1.41331 17.7976 0.816413 18.2252 0.500382C18.6705 0.166838 19.1783 0 19.7484 0C20.0334 0 20.3006 0.0351588 20.5501 0.105344C20.8173 0.175529 21.0489 0.298518 21.2449 0.474047C21.4409 0.649575 21.6013 0.886598 21.7259 1.18511C21.8506 1.48363 21.913 1.85233 21.913 2.29122V11.7721C21.913 12.2287 21.8506 12.6061 21.7259 12.9046C21.6013 13.2031 21.4409 13.4401 21.2449 13.6157C21.0489 13.7912 20.8173 13.9142 20.5501 13.9844C20.3006 14.0545 20.0334 14.0897 19.7484 14.0897C19.4634 14.0897 19.1872 14.0545 18.92 13.9844C18.6705 13.9142 18.439 13.7912 18.2252 13.6157C18.0292 13.4401 17.8688 13.2031 17.7442 12.9046C17.6373 12.6061 17.5838 12.2287 17.5838 11.7721V2.29122ZM9.62034 0.31603C10.1014 0.31603 10.4755 0.368703 10.7427 0.474047C11.0099 0.561877 11.2148 0.693556 11.3573 0.869085C11.4999 1.0271 11.5889 1.22896 11.6246 1.47481C11.6603 1.72065 11.678 2.00153 11.678 2.31756V5.84657C11.678 6.37328 11.6156 6.9615 11.491 7.61107C11.3663 8.24313 11.1613 8.89271 10.8763 9.55993C10.6091 10.2271 10.2439 10.8855 9.78068 11.5351C9.33534 12.1672 8.78297 12.7291 8.12384 13.2206C7.64282 13.5718 7.17076 13.7035 6.70751 13.6157C6.24427 13.5103 5.85237 13.3348 5.53169 13.0889C5.12189 12.8081 4.89034 12.413 4.83689 11.9038C4.80122 11.3771 4.96156 10.8855 5.31791 10.429C5.92359 9.67409 6.40461 8.96302 6.76096 8.2958C7.13508 7.61107 7.32215 6.87367 7.32215 6.08359V3.95038H2.43181C1.93298 3.95038 1.52322 3.90653 1.20254 3.8187C0.881864 3.71336 0.632444 3.58168 0.454294 3.42367C0.276144 3.24814 0.151427 3.05496 0.0801693 2.84428C0.0267229 2.61608 0 2.37023 0 2.10687C0 1.89618 0.0267229 1.6855 0.0801693 1.47481C0.151427 1.24661 0.276144 1.05344 0.454294 0.895421C0.632444 0.719892 0.881864 0.57939 1.20254 0.474047C1.52322 0.368703 1.93298 0.31603 2.43181 0.31603H9.62034ZM14.8046 15.0641C14.8046 15.6787 14.9917 16.2229 15.3658 16.697C15.7577 17.171 16.2477 17.5749 16.8356 17.9084C17.4413 18.2419 18.1183 18.5141 18.8666 18.7248C19.6148 18.9355 20.363 19.0847 21.1113 19.1725C21.8061 19.2604 22.3228 19.4797 22.6612 19.8309C22.9997 20.1996 23.1245 20.7175 23.0354 21.3847C22.9819 21.7359 22.875 22.0168 22.7147 22.2275C22.5721 22.4382 22.394 22.605 22.1802 22.7279C21.9664 22.8507 21.7259 22.9297 21.4587 22.9649C21.1915 23.0001 20.9242 23.0087 20.657 22.9912C19.1605 22.8684 17.7264 22.5084 16.3546 21.9115C14.9827 21.3321 13.7891 20.6122 12.7737 19.7519C12.2749 20.1733 11.6958 20.5683 11.0367 20.937C10.3953 21.3057 9.70946 21.6306 8.97898 21.9115C8.26641 22.21 7.52698 22.447 6.76096 22.6225C5.99494 22.8157 5.23774 22.9386 4.48949 22.9912C4.22226 23.0087 3.95503 23.0001 3.6878 22.9649C3.42056 22.9297 3.18006 22.8507 2.96627 22.7279C2.75249 22.605 2.56542 22.4382 2.40508 22.2275C2.26256 22.0168 2.16458 21.7359 2.11113 21.3847C2.02205 20.7175 2.14676 20.1996 2.48525 19.8309C2.82374 19.4797 3.3404 19.2604 4.0352 19.1725C4.80122 19.0847 5.55842 18.9443 6.30667 18.7512C7.05491 18.5756 7.72299 18.321 8.3109 17.9874C8.91658 17.6539 9.40655 17.25 9.78068 16.776C10.1548 16.2844 10.3508 15.705 10.3686 15.0378V14.6954C10.3686 14.2039 10.5646 13.8175 10.9565 13.5366C11.3484 13.2381 11.8918 13.0889 12.5866 13.0889C13.2814 13.0889 13.8248 13.2381 14.2167 13.5366C14.6086 13.8175 14.8046 14.2039 14.8046 14.6954V15.0641ZM31.6187 22.9122C30.7813 22.8947 30.0688 22.763 29.4809 22.5172C28.8929 22.2713 28.4209 21.9466 28.0645 21.5428C27.7082 21.1565 27.4499 20.7 27.2896 20.1733C27.1292 19.6466 27.049 19.076 27.049 18.4615C27.049 17.8469 27.1203 17.2763 27.2628 16.7496C27.4054 16.2054 27.6459 15.7313 27.9844 15.3275C28.3407 14.9236 28.8128 14.6076 29.4007 14.3794C30.0064 14.1512 30.7636 14.0282 31.6722 14.0107H43.3769C44.2855 14.0107 45.0337 14.1249 45.6216 14.3531C46.2273 14.5813 46.6995 14.8973 47.038 15.3012C47.3943 15.705 47.6437 16.1791 47.7862 16.7233C47.9288 17.2675 48 17.8469 48 18.4615C48 19.076 47.9198 19.6466 47.7595 20.1733C47.5992 20.7 47.3319 21.1565 46.9578 21.5428C46.6014 21.9466 46.1294 22.2713 45.5415 22.5172C44.9713 22.763 44.2677 22.8947 43.4303 22.9122H31.6187ZM29.8015 9.34924H33.7031C34.2019 9.34924 34.6117 9.39309 34.9324 9.48092C35.2531 9.56875 35.5025 9.69161 35.6806 9.84962C35.8587 9.99012 35.9746 10.1657 36.028 10.3763C36.0992 10.5695 36.1349 10.7714 36.1349 10.9821C36.1349 11.2454 36.0992 11.4824 36.028 11.6931C35.9746 11.9038 35.8587 12.0882 35.6806 12.2462C35.5025 12.3867 35.2531 12.5007 34.9324 12.5886C34.6117 12.6764 34.2019 12.7202 33.7031 12.7202H28.1714C27.6726 12.7202 27.2806 12.6764 26.9956 12.5886C26.7106 12.5007 26.4879 12.3867 26.3275 12.2462C26.185 12.0882 26.096 11.9038 26.0603 11.6931C26.0246 11.4824 26.0068 11.2454 26.0068 10.9821V6.95268C26.0068 6.61913 26.0246 6.32061 26.0603 6.05725C26.096 5.77638 26.185 5.54805 26.3275 5.37252C26.4879 5.17935 26.7106 5.03898 26.9956 4.95115C27.2806 4.8458 27.6726 4.79313 28.1714 4.79313H31.5385V3.66069H28.4387C27.9399 3.66069 27.5301 3.61684 27.2094 3.52901C26.8887 3.44118 26.6392 3.31832 26.4611 3.16031C26.283 3.00229 26.1582 2.82676 26.087 2.63359C26.0336 2.4229 26.0068 2.21221 26.0068 2.00153C26.0068 1.73817 26.0336 1.50115 26.087 1.29046C26.1582 1.07977 26.283 0.895421 26.4611 0.737406C26.6392 0.57939 26.8887 0.456533 27.2094 0.368703C27.5301 0.280873 27.9399 0.237023 28.4387 0.237023H33.4359C33.9347 0.237023 34.3267 0.289695 34.6117 0.395038C34.8967 0.482869 35.1105 0.614548 35.2531 0.790077C35.4134 0.948092 35.5113 1.14126 35.547 1.36947C35.5827 1.58015 35.6005 1.81718 35.6005 2.08054V5.95191C35.6005 6.28545 35.5827 6.59279 35.547 6.87367C35.5113 7.13703 35.4134 7.36523 35.2531 7.5584C35.1105 7.73393 34.8967 7.87443 34.6117 7.97978C34.3267 8.06761 33.9347 8.11145 33.4359 8.11145H29.8015V9.34924ZM44.0984 8.24313H41.8002V10.8504C41.8002 11.7633 41.6309 12.3779 41.2925 12.6939C40.9718 13.0099 40.5265 13.1679 39.9563 13.1679C39.3862 13.1679 38.9231 13.0099 38.5667 12.6939C38.2283 12.3779 38.059 11.7633 38.059 10.8504V2.29122C38.059 1.41331 38.2283 0.816413 38.5667 0.500382C38.9052 0.166838 39.3595 0 39.9296 0C40.4818 0 40.9273 0.166838 41.2658 0.500382C41.6221 0.816413 41.8002 1.41331 41.8002 2.29122V4.66145H44.0984V2.29122C44.0984 1.41331 44.2677 0.816413 44.6062 0.500382C44.9446 0.166838 45.3989 0 45.969 0C46.5213 0 46.9668 0.166838 47.3052 0.500382C47.6616 0.816413 47.8397 1.41331 47.8397 2.29122V10.8767C47.8397 11.7897 47.6704 12.4042 47.3319 12.7202C47.0112 13.0363 46.5659 13.1943 45.9958 13.1943C45.4256 13.1943 44.9625 13.0363 44.6062 12.7202C44.2677 12.4042 44.0984 11.7897 44.0984 10.8767V8.24313ZM42.2278 19.4095C42.7445 19.4095 43.1186 19.3481 43.3502 19.2252C43.5817 19.1199 43.6976 18.8653 43.6976 18.4615C43.6976 18.0401 43.5817 17.7767 43.3502 17.6714C43.1186 17.5485 42.7445 17.487 42.2278 17.487H32.8213C32.3046 17.487 31.9304 17.5485 31.6989 17.6714C31.4673 17.7767 31.3515 18.0401 31.3515 18.4615C31.3515 18.8653 31.4673 19.1199 31.6989 19.2252C31.9304 19.3481 32.3046 19.4095 32.8213 19.4095H42.2278Z" fill="#9898A7"/>
</svg>
