<svg width="24" height="24" viewBox="0 0 24 24" fill="none" xmlns="http://www.w3.org/2000/svg">
<path d="M12 0C18.63 0 24 5.50583 24 12.3035C23.9994 14.8814 23.2103 17.3942 21.7438 19.4882C20.2773 21.5822 18.2072 23.1519 15.825 23.9765C15.225 24.0995 15 23.715 15 23.3921C15 22.9768 15.015 21.6542 15.015 20.0086C15.015 18.8552 14.64 18.1169 14.205 17.7325C16.875 17.4249 19.68 16.3791 19.68 11.6576C19.68 10.3042 19.215 9.21227 18.45 8.35102C18.57 8.04343 18.99 6.78232 18.33 5.09058C18.33 5.09058 17.325 4.75224 15.03 6.3517C14.07 6.07487 13.05 5.93645 12.03 5.93645C11.01 5.93645 9.99 6.07487 9.03 6.3517C6.735 4.76762 5.73 5.09058 5.73 5.09058C5.07 6.78232 5.49 8.04343 5.61 8.35102C4.845 9.21227 4.38 10.3196 4.38 11.6576C4.38 16.3637 7.17 17.4249 9.84 17.7325C9.495 18.04 9.18 18.5783 9.075 19.3781C8.385 19.701 6.66 20.2239 5.58 18.363C5.355 17.9939 4.68 17.0865 3.735 17.1019C2.73 17.1173 3.33 17.6863 3.75 17.917C4.26 18.2092 4.845 19.3012 4.98 19.6549C5.22 20.347 6 21.6696 9.015 21.1005C9.015 22.131 9.03 23.0999 9.03 23.3921C9.03 23.715 8.805 24.0842 8.205 23.9765C5.81496 23.1608 3.7361 21.5942 2.26334 19.499C0.79057 17.4037 -0.00132072 14.8862 1.65347e-06 12.3035C1.65347e-06 5.50583 5.37 0 12 0Z" fill="white"/>
</svg>
