<svg width="24" height="24" viewBox="0 0 24 24" fill="none" xmlns="http://www.w3.org/2000/svg">
<path d="M12.875 5.97321C13.35 5.69196 13.6667 5.1817 13.6667 4.60714C13.6667 3.7192 12.9208 3 12 3C11.0792 3 10.3333 3.7192 10.3333 4.60714C10.3333 5.18571 10.65 5.69196 11.125 5.97321L8.7375 10.5777C8.35833 11.3089 7.375 11.5179 6.7125 11.0076L3 8.14286C3.20833 7.87366 3.33333 7.54018 3.33333 7.17857C3.33333 6.29063 2.5875 5.57143 1.66667 5.57143C0.745833 5.57143 0 6.29063 0 7.17857C0 8.06652 0.745833 8.78571 1.66667 8.78571H1.69583L3.6 18.8866C3.82917 20.108 4.93333 21 6.225 21H17.775C19.0625 21 20.1667 20.1121 20.4 18.8866L22.3042 8.78571H22.3333C23.2542 8.78571 24 8.06652 24 7.17857C24 6.29063 23.2542 5.57143 22.3333 5.57143C21.4125 5.57143 20.6667 6.29063 20.6667 7.17857C20.6667 7.54018 20.7917 7.87366 21 8.14286L17.2875 11.0076C16.625 11.5179 15.6417 11.3089 15.2625 10.5777L12.875 5.97321Z" fill="#9898A7"/>
</svg>
